<svg xmlns="http://www.w3.org/2000/svg" viewBox="0 0 1000 550" width="100%" height="100%">
  <!-- Style Definitions -->
  <style>
    @import url('https://fonts.googleapis.com/css2?family=Inter:wght@400;500;600;700&amp;family=JetBrains+Mono:wght@400;500;600&amp;display=swap');
    
    .bg-dark { fill: #000000; }
    .bg-sidebar { fill: #f8fafc; }
    .sidebar-border { stroke: #cbd5e1; stroke-width: 1; }
    .sidebar-header { fill: #f1f5f9; stroke: #cbd5e1; stroke-width: 1; }
    
    /* Typography */
    .font-sans { font-family: "Inter", -apple-system, BlinkMacSystemFont, "Segoe UI", Roboto, sans-serif; }
    .font-mono { font-family: "JetBrains Mono", "Fira Code", monospace; }
    
    .text-title { font-size: 11px; font-weight: 600; fill: #1e293b; }
    .text-header-btn { font-size: 10px; fill: #64748b; }
    .text-layer { font-size: 11px; fill: #334155; }
    .text-category { font-size: 11px; font-weight: 500; fill: #1e293b; }
    .text-selected { font-size: 11px; font-weight: 500; fill: #ffffff; }
    
    /* CAD Layout Styles */
    .grid-line { stroke: #1e293b; stroke-width: 0.5; stroke-dasharray: 2 2; }
    .die-boundary { stroke: #06b6d4; stroke-width: 1.5; fill: none; }
    .metal-strap { fill: #ef4444; opacity: 0.85; }
    .power-rail { stroke: #ef4444; stroke-width: 2.5; opacity: 0.9; }
    .cell-row { fill: #7c3aed; opacity: 0.15; }
    .cell-block { fill: #c084fc; opacity: 0.4; stroke: #a855f7; stroke-width: 0.5; }
    .pin-diamond { fill: #22d3ee; stroke: #0891b2; stroke-width: 0.75; }
    .dimension-line { stroke: #94a3b8; stroke-width: 1; stroke-dasharray: 3 3; }
    .dimension-arrow { fill: #94a3b8; }
    .text-dimension { font-size: 12px; fill: #cbd5e1; font-weight: 500; }
    .scale-bar { stroke: #ffffff; stroke-width: 1.5; fill: none; }
    .text-scale { font-size: 10px; fill: #ffffff; }
    
    /* UI Components */
    .checkbox-box { fill: #ffffff; stroke: #cbd5e1; stroke-width: 1; rx: 1px; }
    .checkbox-checked { fill: none; stroke: #334155; stroke-width: 1.5; stroke-linecap: round; stroke-linejoin: round; }
    .arrow-down { fill: #475569; }
    .arrow-right { fill: #94a3b8; }
  </style>

  <defs>
    <!-- Grid Pattern -->
    <pattern id="cadGrid" width="40" height="40" patternUnits="userSpaceOnUse">
      <line x1="0" y1="0" x2="40" y2="0" class="grid-line" />
      <line x1="0" y1="0" x2="0" y2="40" class="grid-line" />
    </pattern>
    
    <!-- Arrows -->
    <marker id="arrowStart" refX="0" refY="3" markerWidth="6" markerHeight="6" orient="auto-start-reverse">
      <path d="M 6 0 L 0 3 L 6 6 z" fill="#94a3b8" />
    </marker>
    <marker id="arrowEnd" refX="6" refY="3" markerWidth="6" markerHeight="6" orient="auto">
      <path d="M 0 0 L 6 3 L 0 6 z" fill="#94a3b8" />
    </marker>
  </defs>

  <!-- ========================================== -->
  <!-- MAIN LAYOUT                                -->
  <!-- ========================================== -->
  <rect width="1000" height="550" class="bg-dark" />

  <!-- CAD Grid Background -->
  <rect x="180" width="820" height="550" fill="url(#cadGrid)" />

  <!-- ========================================== -->
  <!-- LEFT SIDEBAR: DISPLAY CONTROL              -->
  <!-- ========================================== -->
  <rect width="180" height="550" class="bg-sidebar sidebar-border" />
  
  <!-- Sidebar Title Header -->
  <rect width="180" height="26" class="sidebar-header" />
  <path d="M 6 13 L 12 8 L 12 18 Z" class="arrow-down" transform="translate(4, -1)" />
  <text x="24" y="17" class="font-sans text-title">Display Control</text>
  
  <!-- Mini tool buttons on header right -->
  <rect x="146" y="6" width="12" height="12" fill="none" stroke="#94a3b8" stroke-width="1" rx="1" />
  <circle cx="152" cy="12" r="2" fill="#64748b" />
  <rect x="162" y="6" width="12" height="12" fill="none" stroke="#94a3b8" stroke-width="1" rx="1" />
  <path d="M 164 12 L 172 12" stroke="#64748b" stroke-width="1.5" />

  <!-- Tree Items -->
  <!-- 1. Layers Section (Expanded) -->
  <g id="layers-header" transform="translate(0, 26)">
    <path d="M 6 13 L 12 8 L 12 18 Z" class="arrow-down" transform="rotate(90, 9, 13) translate(0, 0)" />
    <text x="18" y="17" class="font-sans text-category">Layers</text>
    
    <!-- Mini icons on header -->
    <circle cx="118" cy="13" r="4" fill="none" stroke="#475569" stroke-width="1" />
    <circle cx="118" cy="13" r="1.5" fill="#475569" />
    
    <path d="M 134 9 L 140 13 L 134 17 Z" fill="#475569" />
    <path d="M 141 13 L 145 13" stroke="#475569" stroke-width="1" />
    
    <rect x="156" y="8" width="10" height="10" fill="none" stroke="#475569" stroke-width="1" />
    <path d="M 158 13 L 164 13" stroke="#475569" stroke-width="1" />
  </g>

  <!-- Layer list -->
  <g id="layer-items" transform="translate(14, 48)">
    <!-- licon -->
    <g transform="translate(0, 0)">
      <rect x="0" y="3" width="10" height="10" class="checkbox-box" />
      <path d="M 2 8 L 4 10 L 8 5" class="checkbox-checked" />
      <rect x="14" y="3" width="10" height="10" fill="#a3e635" rx="1" />
      <rect x="28" y="3" width="10" height="10" class="checkbox-box" />
      <path d="M 30 8 L 32 10 L 36 5" class="checkbox-checked" />
      <text x="44" y="12" class="font-mono text-layer">licon</text>
    </g>

    <!-- li1 -->
    <g transform="translate(0, 16)">
      <rect x="0" y="3" width="10" height="10" class="checkbox-box" />
      <path d="M 2 8 L 4 10 L 8 5" class="checkbox-checked" />
      <rect x="14" y="3" width="10" height="10" fill="#2563eb" rx="1" />
      <rect x="28" y="3" width="10" height="10" class="checkbox-box" />
      <path d="M 30 8 L 32 10 L 36 5" class="checkbox-checked" />
      <text x="44" y="12" class="font-mono text-layer">li1</text>
    </g>

    <!-- mcon -->
    <g transform="translate(0, 32)">
      <rect x="0" y="3" width="10" height="10" class="checkbox-box" />
      <path d="M 2 8 L 4 10 L 8 5" class="checkbox-checked" />
      <rect x="14" y="3" width="10" height="10" fill="#3b82f6" rx="1" />
      <rect x="28" y="3" width="10" height="10" class="checkbox-box" />
      <path d="M 30 8 L 32 10 L 36 5" class="checkbox-checked" />
      <text x="44" y="12" class="font-mono text-layer">mcon</text>
    </g>

    <!-- met1 -->
    <g transform="translate(0, 48)">
      <rect x="0" y="3" width="10" height="10" class="checkbox-box" />
      <path d="M 2 8 L 4 10 L 8 5" class="checkbox-checked" />
      <rect x="14" y="3" width="10" height="10" fill="#ef4444" rx="1" />
      <rect x="28" y="3" width="10" height="10" class="checkbox-box" />
      <path d="M 30 8 L 32 10 L 36 5" class="checkbox-checked" />
      <text x="44" y="12" class="font-mono text-layer">met1</text>
    </g>

    <!-- via -->
    <g transform="translate(0, 64)">
      <rect x="0" y="3" width="10" height="10" class="checkbox-box" />
      <path d="M 2 8 L 4 10 L 8 5" class="checkbox-checked" />
      <rect x="14" y="3" width="10" height="10" fill="#3b82f6" rx="1" />
      <rect x="28" y="3" width="10" height="10" class="checkbox-box" />
      <path d="M 30 8 L 32 10 L 36 5" class="checkbox-checked" />
      <text x="44" y="12" class="font-mono text-layer">via</text>
    </g>

    <!-- met2 -->
    <g transform="translate(0, 80)">
      <rect x="0" y="3" width="10" height="10" class="checkbox-box" />
      <rect x="14" y="3" width="10" height="10" fill="#22c55e" rx="1" />
      <rect x="28" y="3" width="10" height="10" class="checkbox-box" />
      <path d="M 30 8 L 32 10 L 36 5" class="checkbox-checked" />
      <text x="44" y="12" class="font-mono text-layer">met2</text>
    </g>

    <!-- via2 -->
    <g transform="translate(0, 96)">
      <rect x="0" y="3" width="10" height="10" class="checkbox-box" />
      <path d="M 2 8 L 4 10 L 8 5" class="checkbox-checked" />
      <rect x="14" y="3" width="10" height="10" fill="#22c55e" rx="1" />
      <rect x="28" y="3" width="10" height="10" class="checkbox-box" />
      <path d="M 30 8 L 32 10 L 36 5" class="checkbox-checked" />
      <text x="44" y="12" class="font-mono text-layer">via2</text>
    </g>

    <!-- met3 -->
    <g transform="translate(0, 112)">
      <rect x="0" y="3" width="10" height="10" class="checkbox-box" />
      <rect x="14" y="3" width="10" height="10" fill="#eab308" rx="1" />
      <rect x="28" y="3" width="10" height="10" class="checkbox-box" />
      <path d="M 30 8 L 32 10 L 36 5" class="checkbox-checked" />
      <text x="44" y="12" class="font-mono text-layer">met3</text>
    </g>

    <!-- via3 -->
    <g transform="translate(0, 128)">
      <rect x="0" y="3" width="10" height="10" class="checkbox-box" />
      <path d="M 2 8 L 4 10 L 8 5" class="checkbox-checked" />
      <rect x="14" y="3" width="10" height="10" fill="#eab308" rx="1" />
      <rect x="28" y="3" width="10" height="10" class="checkbox-box" />
      <path d="M 30 8 L 32 10 L 36 5" class="checkbox-checked" />
      <text x="44" y="12" class="font-mono text-layer">via3</text>
    </g>

    <!-- met4 -->
    <g transform="translate(0, 144)">
      <rect x="0" y="3" width="10" height="10" class="checkbox-box" />
      <rect x="14" y="3" width="10" height="10" fill="#a21caf" rx="1" />
      <rect x="28" y="3" width="10" height="10" class="checkbox-box" />
      <path d="M 30 8 L 32 10 L 36 5" class="checkbox-checked" />
      <text x="44" y="12" class="font-mono text-layer">met4</text>
    </g>

    <!-- via4 -->
    <g transform="translate(0, 160)">
      <rect x="0" y="3" width="10" height="10" class="checkbox-box" />
      <path d="M 2 8 L 4 10 L 8 5" class="checkbox-checked" />
      <rect x="14" y="3" width="10" height="10" fill="#a21caf" rx="1" />
      <rect x="28" y="3" width="10" height="10" class="checkbox-box" />
      <path d="M 30 8 L 32 10 L 36 5" class="checkbox-checked" />
      <text x="44" y="12" class="font-mono text-layer">via4</text>
    </g>

    <!-- met5 -->
    <g transform="translate(0, 176)">
      <rect x="0" y="3" width="10" height="10" class="checkbox-box" />
      <rect x="14" y="3" width="10" height="10" fill="#06b6d4" rx="1" />
      <rect x="28" y="3" width="10" height="10" class="checkbox-box" />
      <path d="M 30 8 L 32 10 L 36 5" class="checkbox-checked" />
      <text x="44" y="12" class="font-mono text-layer">met5</text>
    </g>
  </g>

  <!-- Other Categories -->
  <g id="other-categories" transform="translate(0, 246)">
    <!-- Nets -->
    <g transform="translate(0, 0)">
      <path d="M 6 13 L 12 8 L 12 18 Z" class="arrow-down" transform="rotate(90, 9, 13)" />
      <rect x="130" y="8" width="10" height="10" class="checkbox-box" />
      <path d="M 132 13 L 134 15 L 138 10" class="checkbox-checked" />
      <rect x="146" y="8" width="10" height="10" class="checkbox-box" />
      <path d="M 148 13 L 150 15 L 154 10" class="checkbox-checked" />
      <text x="18" y="17" class="font-sans text-category">Nets</text>
    </g>

    <!-- Instances -->
    <g transform="translate(0, 18)">
      <path d="M 6 13 L 12 8 L 12 18 Z" class="arrow-down" transform="rotate(90, 9, 13)" />
      <rect x="130" y="8" width="10" height="10" class="checkbox-box" />
      <path d="M 132 13 L 134 15 L 138 10" class="checkbox-checked" />
      <rect x="146" y="8" width="10" height="10" class="checkbox-box" />
      <path d="M 148 13 L 150 15 L 154 10" class="checkbox-checked" />
      <text x="18" y="17" class="font-sans text-category">Instances</text>
    </g>

    <!-- Blockages -->
    <g transform="translate(0, 36)">
      <path d="M 6 13 L 12 8 L 12 18 Z" class="arrow-down" transform="rotate(90, 9, 13)" />
      <rect x="130" y="8" width="10" height="10" class="checkbox-box" />
      <rect x="146" y="8" width="10" height="10" class="checkbox-box" />
      <text x="18" y="17" class="font-sans text-category">Blockages</text>
    </g>

    <!-- Rulers -->
    <g transform="translate(0, 54)">
      <path d="M 6 13 L 12 8 L 12 18 Z" class="arrow-down" transform="rotate(90, 9, 13)" />
      <rect x="110" y="8" width="10" height="10" fill="#06b6d4" rx="1" />
      <rect x="130" y="8" width="10" height="10" class="checkbox-box" />
      <path d="M 132 13 L 134 15 L 138 10" class="checkbox-checked" />
      <rect x="146" y="8" width="10" height="10" class="checkbox-box" />
      <path d="M 148 13 L 150 15 L 154 10" class="checkbox-checked" />
      <text x="18" y="17" class="font-sans text-category">Rulers</text>
    </g>

    <!-- Rows -->
    <g transform="translate(0, 72)">
      <path d="M 6 13 L 12 8 L 12 18 Z" class="arrow-down" transform="rotate(90, 9, 13)" />
      <rect x="130" y="8" width="10" height="10" class="checkbox-box" />
      <rect x="146" y="8" width="10" height="10" class="checkbox-box" />
      <text x="18" y="17" class="font-sans text-category">Rows</text>
    </g>

    <!-- Tracks -->
    <g transform="translate(0, 90)">
      <path d="M 6 13 L 12 8 L 12 18 Z" class="arrow-down" transform="rotate(90, 9, 13)" />
      <text x="18" y="17" class="font-sans text-category">Tracks</text>
    </g>

    <!-- Misc -->
    <g transform="translate(0, 108)">
      <path d="M 6 13 L 12 8 L 12 18 Z" class="arrow-down" transform="rotate(90, 9, 13)" />
      <rect x="130" y="8" width="10" height="10" class="checkbox-box" />
      <path d="M 132 13 L 134 15 L 138 10" class="checkbox-checked" />
      <rect x="146" y="8" width="10" height="10" class="checkbox-box" />
      <path d="M 148 13 L 150 15 L 154 10" class="checkbox-checked" />
      <text x="18" y="17" class="font-sans text-category">Misc</text>
    </g>

    <!-- Heat Maps -->
    <g transform="translate(0, 126)">
      <path d="M 6 13 L 12 8 L 12 18 Z" class="arrow-down" transform="rotate(90, 9, 13)" />
      <text x="18" y="17" class="font-sans text-category">Heat Maps</text>
    </g>

    <!-- Timing Path (Selected/Active Highlight) -->
    <g transform="translate(0, 144)">
      <rect width="180" height="24" fill="#2563eb" />
      <path d="M 6 13 L 12 8 L 12 18 Z" class="arrow-down" transform="rotate(90, 9, 13)" fill="#ffffff" />
      <rect x="130" y="7" width="10" height="10" fill="#ffffff" rx="1" />
      <path d="M 132 12 L 134 14 L 138 9" stroke="#2563eb" stroke-width="1.5" stroke-linecap="round" stroke-linejoin="round" fill="none" />
      <rect x="146" y="7" width="10" height="10" fill="#ffffff" rx="1" />
      <path d="M 148 12 L 150 14 L 154 9" stroke="#2563eb" stroke-width="1.5" stroke-linecap="round" stroke-linejoin="round" fill="none" />
      <text x="18" y="16" class="font-sans text-selected">Timing Path</text>
    </g>
  </g>


  <!-- ========================================== -->
  <!-- RIGHT WORKSPACE: CAD CANVAS                -->
  <!-- ========================================== -->

  <!-- Boundary limits and coordinate labels -->
  <!-- Top scale coordinates -->
  <line x1="380" y1="520" x2="380" y2="528" stroke="#22c55e" stroke-width="1" />
  <line x1="590" y1="520" x2="590" y2="528" stroke="#22c55e" stroke-width="1" />
  <line x1="800" y1="520" x2="800" y2="528" stroke="#22c55e" stroke-width="1" />

  <!-- The Core/Die Boundary -->
  <!-- Let's position the core from (390, 90) to (790, 470) -->
  <rect x="390" y="90" width="400" height="380" class="die-boundary" />
  
  <!-- Dimension arrows & markers -->
  <!-- Height Dimension (62.559 um) -->
  <line x1="365" y1="90" x2="365" y2="470" class="dimension-line" marker-start="url(#arrowStart)" marker-end="url(#arrowEnd)" />
  <text x="360" y="285" class="font-mono text-dimension" transform="rotate(-90, 360, 285)" text-anchor="middle">62.559</text>
  <line x1="358" y1="90" x2="390" y2="90" stroke="#475569" stroke-width="0.75" />
  <line x1="358" y1="470" x2="390" y2="470" stroke="#475569" stroke-width="0.75" />

  <!-- Width Dimension (64.86 um) -->
  <line x1="390" y1="65" x2="790" y2="65" class="dimension-line" marker-start="url(#arrowStart)" marker-end="url(#arrowEnd)" />
  <text x="590" y="58" class="font-mono text-dimension" text-anchor="middle">64.86</text>
  <line x1="390" y1="60" x2="390" y2="90" stroke="#475569" stroke-width="0.75" />
  <line x1="790" y1="60" x2="790" y2="90" stroke="#475569" stroke-width="0.75" />

  <!-- Silicon Content: Standard Cell Rows & Power Straps -->
  <!-- Purple Standard Cell Rows (striped structure) -->
  <g id="standard-cell-rows">
    <rect x="395" y="98" width="390" height="15" class="cell-row" />
    <rect x="395" y="123" width="390" height="15" class="cell-row" />
    <rect x="395" y="148" width="390" height="15" class="cell-row" />
    <rect x="395" y="173" width="390" height="15" class="cell-row" />
    <rect x="395" y="198" width="390" height="15" class="cell-row" />
    <rect x="395" y="223" width="390" height="15" class="cell-row" />
    <rect x="395" y="248" width="390" height="15" class="cell-row" />
    <rect x="395" y="273" width="390" height="15" class="cell-row" />
    <rect x="395" y="298" width="390" height="15" class="cell-row" />
    <rect x="395" y="323" width="390" height="15" class="cell-row" />
    <rect x="395" y="348" width="390" height="15" class="cell-row" />
    <rect x="395" y="373" width="390" height="15" class="cell-row" />
    <rect x="395" y="398" width="390" height="15" class="cell-row" />
    <rect x="395" y="423" width="390" height="15" class="cell-row" />
    <rect x="395" y="448" width="390" height="15" class="cell-row" />
  </g>

  <!-- Placement blocks / IP Hard Macros / Logic blocks placement (Denser patches) -->
  <g id="macro-placements">
    <!-- RAM decoder block -->
    <rect x="405" y="105" width="80" height="60" class="cell-block" />
    <text x="445" y="140" class="font-sans text-dimension" font-size="10" text-anchor="middle" fill="#f3e8ff" opacity="0.9">SRAM_DEC</text>
    
    <!-- PLIC Core -->
    <rect x="680" y="105" width="100" height="120" class="cell-block" />
    <text x="730" y="170" class="font-sans text-dimension" font-size="10" text-anchor="middle" fill="#f3e8ff" opacity="0.9">PLIC_CORE</text>

    <!-- CPU ALU Logic cluster -->
    <rect x="500" y="235" width="160" height="150" class="cell-block" />
    <text x="580" y="315" class="font-sans text-dimension" font-size="11" text-anchor="middle" fill="#f3e8ff" opacity="0.9">RV32IM_CPU_CORE</text>
    
    <!-- Peripheral Control Block -->
    <rect x="405" y="395" width="90" height="60" class="cell-block" />
    <text x="450" y="430" class="font-sans text-dimension" font-size="10" text-anchor="middle" fill="#f3e8ff" opacity="0.9">APB_PERIPH</text>

    <!-- Timer module -->
    <rect x="690" y="395" width="80" height="60" class="cell-block" />
    <text x="730" y="430" class="font-sans text-dimension" font-size="10" text-anchor="middle" fill="#f3e8ff" opacity="0.9">TIMER_M</text>
  </g>

  <!-- Horizontal Metal-1 Power Grid Stripes (Red lines running left-to-right) -->
  <g id="power-stripes">
    <line x1="390" y1="91" x2="790" y2="91" class="power-rail" />
    <line x1="390" y1="116" x2="790" y2="116" class="power-rail" />
    <line x1="390" y1="141" x2="790" y2="141" class="power-rail" />
    <line x1="390" y1="166" x2="790" y2="166" class="power-rail" />
    <line x1="390" y1="191" x2="790" y2="191" class="power-rail" />
    <line x1="390" y1="216" x2="790" y2="216" class="power-rail" />
    <line x1="390" y1="241" x2="790" y2="241" class="power-rail" />
    <line x1="390" y1="266" x2="790" y2="266" class="power-rail" />
    <line x1="390" y1="291" x2="790" y2="291" class="power-rail" />
    <line x1="390" y1="316" x2="790" y2="316" class="power-rail" />
    <line x1="390" y1="341" x2="790" y2="341" class="power-rail" />
    <line x1="390" y1="366" x2="790" y2="366" class="power-rail" />
    <line x1="390" y1="391" x2="790" y2="391" class="power-rail" />
    <line x1="390" y1="416" x2="790" y2="416" class="power-rail" />
    <line x1="390" y1="441" x2="790" y2="441" class="power-rail" />
    <line x1="390" y1="466" x2="790" y2="466" class="power-rail" />
  </g>

  <!-- Cyan Diamond clock taps / pins along vertical center axis -->
  <g id="clock-taps">
    <!-- Diamonds along the vertical midline (x=590) -->
    <path d="M 590 111 L 594 116 L 590 121 L 586 116 Z" class="pin-diamond" />
    <path d="M 590 161 L 594 166 L 590 171 L 586 166 Z" class="pin-diamond" />
    <path d="M 590 211 L 594 216 L 590 221 L 586 216 Z" class="pin-diamond" />
    <path d="M 590 261 L 594 266 L 590 271 L 586 266 Z" class="pin-diamond" />
    <path d="M 590 311 L 594 316 L 590 321 L 586 316 Z" class="pin-diamond" />
    <path d="M 590 361 L 594 366 L 590 371 L 586 366 Z" class="pin-diamond" />
    <path d="M 590 411 L 594 416 L 590 421 L 586 416 Z" class="pin-diamond" />
    <path d="M 590 461 L 594 466 L 590 471 L 586 466 Z" class="pin-diamond" />
  </g>

  <!-- Green boundary arrow markers -->
  <g id="boundary-markers">
    <!-- Top edge -->
    <path d="M 590 90 L 594 82 L 586 82 Z" fill="#22c55e" />
    <path d="M 770 90 L 774 82 L 766 82 Z" fill="#22c55e" />
    <!-- Bottom edge -->
    <path d="M 390 470 L 394 478 L 386 478 Z" fill="#22c55e" />
    <path d="M 660 470 L 664 478 L 656 478 Z" fill="#22c55e" />
    <!-- Left edge -->
    <path d="M 390 280 L 382 284 L 382 276 Z" fill="#22c55e" />
    <path d="M 390 410 L 382 414 L 382 406 Z" fill="#22c55e" />
    <!-- Right edge -->
    <path d="M 790 190 L 798 194 L 798 186 Z" fill="#22c55e" />
    <path d="M 790 330 L 798 334 L 798 326 Z" fill="#22c55e" />
  </g>

  <!-- ========================================== -->
  <!-- CAD SCALE RULER (BOTTOM LEFT)              -->
  <!-- ========================================== -->
  <g id="cad-scale-ruler" transform="translate(195, 485)">
    <!-- Scale horizontal line -->
    <path d="M 0 15 L 120 15" class="scale-bar" />
    <!-- Scale ticks -->
    <path d="M 0 10 L 0 15" class="scale-bar" />
    <path d="M 60 10 L 60 15" class="scale-bar" />
    <path d="M 120 10 L 120 15" class="scale-bar" />
    <!-- Scale text -->
    <text x="0" y="5" class="font-mono text-scale" text-anchor="middle">0</text>
    <text x="60" y="5" class="font-mono text-scale" text-anchor="middle">10</text>
    <text x="120" y="5" class="font-mono text-scale" text-anchor="middle">20um</text>
  </g>

</svg>
